<?xml version="1.0" encoding="utf-8"?>
<!-- Generator: Adobe Illustrator 22.1.0, SVG Export Plug-In . SVG Version: 6.00 Build 0)  -->
<svg version="1.1" id="Layer_1" xmlns="http://www.w3.org/2000/svg" xmlns:xlink="http://www.w3.org/1999/xlink" x="0px" y="0px"
	 viewBox="0 0 368.3 165.6" style="enable-background:new 0 0 368.3 165.6;" xml:space="preserve">
<style type="text/css">
	.st0{fill:#FFFFFF;}
</style>
<g>
	<g>
		<path class="st0" d="M23,106.6l9.6-54.7h26.2c15.6,0,21.9,7.2,19.9,18.5c-2.1,11.8-10.3,19.2-25.9,19.2h-9l-3,17H23z M53.4,76.8
			c4.2,0,7.5-1.7,8.3-6.4c0.9-5.1-4.7-5.8-8.5-5.8h-5.1L46,76.8H53.4z"/>
		<path class="st0" d="M92.3,90.3c-0.8,4.7,2.2,7.8,6.4,7.8c2.5,0,5-1.1,6.5-3.5h15c-4.4,9.9-15,13.1-24.2,13.1
			c-12.7,0-21.2-7.3-18.9-20.7c2.3-13.1,13.5-21.4,26.2-21.4c14.6,0,21.7,10.2,18.9,24.6L92.3,90.3L92.3,90.3z M107.9,82.2
			c0.6-3.6-2-6.9-5.7-6.9c-4.7,0-7.8,2.7-8.5,6.9H107.9z"/>
		<path class="st0" d="M131,67.1h14.4l-1.1,6.3c4.4-4.8,8.7-7.4,14.7-7.4c10.5,0,14.3,6.2,12.4,17.2l-4.2,24h-15.8l3.7-21.1
			c0.7-4,0.2-7.5-4.2-7.5c-4.9,0-6.7,3.1-7.6,8.2l-3.6,20.4H124L131,67.1z"/>
		<path class="st0" d="M179.7,67.1h14.4l-1.1,6.3c4.4-4.8,8.7-7.4,14.7-7.4c10.5,0,14.3,6.2,12.4,17.2l-4.2,24h-15.8l3.7-21.1
			c0.7-4,0.2-7.5-4.2-7.5c-4.9,0-6.7,3.1-7.6,8.2l-3.6,20.4h-15.8L179.7,67.1z"/>
		<path class="st0" d="M250.2,65.9c14,0,21.2,8.3,19,20.8c-2.6,14.6-13.6,21.5-26.4,21.5c-12.7,0-21.4-7-19-20.7
			C226.3,73.6,236.8,65.9,250.2,65.9 M239.8,86.7c-1.3,7.5,0.9,10.8,4.9,10.8c4.2,0,7.4-3.3,8.7-10.8c1-5.9-0.8-10.3-4.9-10.1
			C243.2,76.6,240.6,82.2,239.8,86.7"/>
		<path class="st0" d="M277.2,67.1h14.4l-1.1,6.3c4.4-4.8,8.7-7.4,14.7-7.4c10.5,0,14.3,6.2,12.4,17.2l-4.2,24h-15.8l3.7-21.1
			c0.7-4,0.2-7.5-4.2-7.5c-4.9,0-6.7,3.1-7.6,8.2l-3.6,20.4h-15.8L277.2,67.1z"/>
	</g>
	<path class="st0" d="M318.7,106.6l7-39.8h15.7l-7,39.8H318.7z M328.5,50.5h15.7l-2,11.2h-15.7L328.5,50.5z"/>
	<g>
		<path class="st0" d="M365.9,43.9c-4-19.3-26.5-33.2-63.5-39.1c-12.7-2-26.8-3-41.8-3c-27.3,0-57.7,3.4-87.9,10
			c-37.4,8.1-72.3,20.3-101,35.3l-3.7,2l6.5,2.1l0.6-0.3c28.1-14.6,62.1-26.4,98.5-34.3c29.9-6.4,60-9.9,87.1-9.9
			c57.1,0,95.6,14.6,100.4,38.2c2.7,13,0.5,23.7-18.7,39.9l-0.5,0.4l-1.4,7.9l3.7-3.2C366.8,70.8,369.2,59.9,365.9,43.9"/>
		<path class="st0" d="M308.8,113.1c-29.8,15.6-67.9,28.6-107.5,36.8c-30.4,6.2-61,9.5-88.7,9.5C52,159.4,11.3,144.3,6.4,120
			c-2.2-10.9,3.1-23.4,15.5-36.2l0.2-0.2l1.5-8.3l-2.4,2.2C5.6,92.5-1.1,107.5,1.6,121c4,19.6,27.3,33.9,65.8,40
			c13.8,2.2,29,3.3,45.4,3.3h0c27.8,0,58.8-3.3,89.5-9.6c43.3-8.9,84.2-23.3,115.3-40.7l1.5-0.9l0,0L308.8,113.1L308.8,113.1z"/>
	</g>
</g>
</svg>
